<svg id="fi_5585305" height="512" viewBox="0 0 512 512" width="512" xmlns="http://www.w3.org/2000/svg" data-name="Layer 1"><path d="m256 0c141.385 0 256 114.615 256 256s-114.615 256-256 256-256-114.615-256-256 114.615-256 256-256zm134.024 360.141a8.631 8.631 0 0 0 0-12.162l-46.974-46.969a8.652 8.652 0 0 0 -12.17 0l-12.766 12.772a37.717 37.717 0 0 1 -44.511 6.667 197.467 197.467 0 0 1 -82.028-82.02 37.7 37.7 0 0 1 6.663-44.527l12.794-12.772a8.626 8.626 0 0 0 -.005-12.158l-46.978-46.963a8.653 8.653 0 0 0 -12.176 0c-2.36 2.358-4.8 4.651-7.221 6.942-1.956 1.847-3.912 3.694-5.847 5.562-3.383 3.264-8.245 7.795-10.874 11.643-14.841 21.726-7.371 52.309 1.92 74.618 14.457 34.711 40.393 68.149 66.832 94.579s59.872 52.349 94.583 66.812c22.3 9.293 52.876 16.758 74.6 1.918 3.851-2.632 8.38-7.488 11.647-10.873 1.865-1.933 3.71-3.886 5.555-5.839 2.294-2.431 4.6-4.864 6.96-7.229zm6.9 6.891a18.394 18.394 0 0 0 0-25.948l-46.978-46.969a18.4 18.4 0 0 0 -25.959 0l-12.765 12.771a27.939 27.939 0 0 1 -33.042 4.949 187.667 187.667 0 0 1 -77.992-77.983 27.956 27.956 0 0 1 4.941-33.053l12.794-12.771a18.4 18.4 0 0 0 0-25.954l-46.978-46.963a18.4 18.4 0 0 0 -25.959 0c-1.942 1.936-4.4 4.275-7.026 6.751-6.568 6.208-14.764 13.936-18.077 18.794-17.449 25.536-9.081 59.7.971 83.866 13.28 31.854 37.754 66.563 68.939 97.725 31.157 31.16 65.855 55.637 97.726 68.917 24.16 10.066 58.315 18.414 83.846.968 4.854-3.316 12.594-11.492 18.791-18.069 2.485-2.619 4.826-5.095 6.768-7.031zm15.05-11.206v-3.536a27.969 27.969 0 0 0 -8.167-18.1l-46.978-46.966a28.123 28.123 0 0 0 -39.724 0l-12.769 12.776a18.039 18.039 0 0 1 -21.59 3.227 177.857 177.857 0 0 1 -73.936-73.945 18.017 18.017 0 0 1 3.227-21.587l12.763-12.776a28.114 28.114 0 0 0 0-39.739l-46.978-46.969a28.138 28.138 0 0 0 -39.724 0c-1.856 1.842-4.284 4.138-6.825 6.563-7.282 6.868-15.536 14.656-19.448 20.384-15.736 23.064-15.736 55.266.028 93.114 13.765 33 38.982 68.827 71.024 100.869s67.854 57.262 100.867 71.015c18.936 7.9 36.47 11.844 52.12 11.844s29.472-3.936 41.01-11.815c5.711-3.907 13.507-12.151 20.361-19.422 2.428-2.565 4.741-4.989 6.569-6.831a27.967 27.967 0 0 0 8.167-18.106z" fill="#6cdc2d" fill-rule="evenodd"></path></svg>