<svg id="Layer_1" height="512" viewBox="0 0 256 256" width="512" xmlns="http://www.w3.org/2000/svg"><g><g><path d="m234.801 65.086h-69.634c-8.284 0-15 6.716-15 15v39.449c0 8.284 6.716 15 15 15h15.653v13.305c0 1.723 2.033 2.64 3.324 1.499l16.756-14.804h33.901c8.284 0 15-6.716 15-15v-39.449c0-8.284-6.715-15-15-15z" fill="#377de2"/></g><g><g><path d="m242.598 67.29c1.389 2.274 2.203 4.937 2.203 7.797v39.449c0 8.284-6.716 15-15 15h-32.008c-1.219 0-2.397.446-3.31 1.253l-13.662 12.07v4.982c0 1.723 2.033 2.64 3.324 1.499l16.756-14.804h33.901c8.284 0 15-6.716 15-15v-39.45c-.001-5.424-2.89-10.162-7.204-12.796z" fill="#2266d3"/></g></g><g><g><path d="m62.098 234.111h84.032c8.284 0 15-6.716 15-15v-48.762c0-8.284-6.716-15-15-15h-20.082v-15.869c0-1.723-2.033-2.64-3.324-1.499l-19.658 17.367h-40.968c-8.284 0-15 6.716-15 15v48.762c0 8.285 6.716 15.001 15 15.001z" fill="#ffc91d"/></g></g><g><g><path d="m153.927 157.552c1.389 2.274 2.203 4.937 2.203 7.797v48.762c0 8.284-6.716 15-15 15h-84.032c-2.86 0-5.523-.815-7.797-2.203 2.634 4.314 7.372 7.203 12.797 7.203h84.032c8.284 0 15-6.716 15-15v-48.762c0-5.425-2.889-10.163-7.203-12.797z" fill="#ffa91a"/></g></g><g><g><path d="m21.199 21.889h99.321c8.284 0 15 6.716 15 15v58.652c0 8.284-6.716 15-15 15h-24.786v18.591c0 1.723-2.033 2.64-3.324 1.499l-22.74-20.09h-48.471c-8.284 0-15-6.716-15-15v-58.652c0-8.284 6.715-15 15-15z" fill="#a54af4"/></g></g><g><g><path d="m12.199 89.191c-1.104 0-2-.896-2-2v-38c0-1.104.896-2 2-2s2 .896 2 2v38c0 1.105-.895 2-2 2zm0-46c-1.104 0-2-.896-2-2v-.191c0-1.104.896-2 2-2s2 .896 2 2v.191c0 1.105-.895 2-2 2z" fill="#b171f4"/></g></g><g><g><path d="m123.983 22.307c.975 1.989 1.537 4.218 1.537 6.582v58.652c0 8.284-6.716 15-15 15h-19.786c-2.761 0-5 2.239-5 5v13.591c0 1.126-.87 1.894-1.833 1.982l8.508 7.517c1.291 1.141 3.324.224 3.324-1.499v-18.591h24.786c8.284 0 15-6.716 15-15v-58.652c.001-7.09-4.924-13.016-11.536-14.582z" fill="#893add"/></g></g><g><g><path d="m127.182 23.465c2.084 2.576 3.338 5.853 3.338 9.425v58.652c0 8.284-6.716 15-15 15h-19.786c-2.761 0-5 2.239-5 5v13.591c0 1.314-1.182 2.151-2.316 1.972l3.992 3.526c1.291 1.141 3.324.224 3.324-1.499v-18.591h24.786c8.284 0 15-6.716 15-15v-58.652c0-5.888-3.401-10.969-8.338-13.424z" fill="#6c2bc1"/></g></g><g><g><g><path d="m56.195 81.715c-.316 0-.638-.075-.937-.233l-25.337-13.459c-.653-.348-1.062-1.026-1.062-1.767s.408-1.419 1.062-1.767l25.338-13.458c.975-.518 2.188-.147 2.705.828s.147 2.187-.828 2.705l-22.013 11.693 22.013 11.691c.976.519 1.346 1.729.828 2.705-.36.676-1.052 1.062-1.769 1.062z" fill="#fff"/></g><g><path d="m85.523 81.715c-.717 0-1.409-.385-1.769-1.062-.518-.976-.147-2.187.828-2.705l22.013-11.691-22.012-11.692c-.976-.519-1.346-1.729-.828-2.705.518-.975 1.729-1.345 2.705-.828l25.338 13.458c.653.348 1.062 1.026 1.062 1.767s-.408 1.419-1.062 1.767l-25.338 13.457c-.299.159-.62.234-.937.234z" fill="#fff"/></g></g><g><path d="m62.797 89.192c-.239 0-.482-.044-.719-.135-1.031-.396-1.545-1.555-1.147-2.585l16.125-41.869c.396-1.032 1.557-1.543 2.585-1.147 1.031.396 1.545 1.555 1.147 2.585l-16.125 41.869c-.306.795-1.063 1.282-1.866 1.282z" fill="#fff"/></g></g><g><g><g><path d="m84.918 209.949c-.316 0-.638-.075-.937-.233l-22.802-12.11c-.653-.348-1.062-1.026-1.062-1.767s.408-1.419 1.062-1.767l22.802-12.11c.976-.518 2.188-.146 2.705.828.518.976.147 2.187-.828 2.705l-19.477 10.344 19.477 10.344c.976.519 1.346 1.729.828 2.705-.359.675-1.051 1.061-1.768 1.061z" fill="#fff"/></g><g><path d="m123.311 209.949c-.717 0-1.409-.386-1.769-1.062-.518-.976-.147-2.187.828-2.705l19.477-10.344-19.477-10.344c-.976-.519-1.346-1.729-.828-2.705.519-.975 1.729-1.345 2.705-.828l22.802 12.11c.653.348 1.062 1.026 1.062 1.767s-.408 1.419-1.062 1.767l-22.802 12.11c-.299.159-.62.234-.936.234z" fill="#fff"/></g></g><g><g><path d="m104.114 208.143c-1.104 0-2-.896-2-2v-12.058c0-2.765 2.249-5.014 5.014-5.014 3.053 0 5.536-2.483 5.536-5.536 0-3.052-2.483-5.535-5.535-5.535h-6.029c-3.052 0-5.535 2.483-5.535 5.535 0 1.104-.896 2-2 2s-2-.896-2-2c0-5.258 4.277-9.535 9.535-9.535h6.029c5.258 0 9.535 4.277 9.535 9.535s-4.277 9.536-9.535 9.536c-.56 0-1.015.455-1.015 1.014v12.058c0 1.104-.895 2-2 2z" fill="#fff"/></g><g><circle cx="104.114" cy="213.171" fill="#fff" r="2.5"/></g></g></g><g><g><g><path d="m214.496 119.664h-4.183c-1.104 0-2-.896-2-2s.896-2 2-2h4.183c.469 0 .851-.382.851-.852v-10.108c0-1.723.926-3.33 2.416-4.195l2.129-1.236-2.13-1.237c-1.489-.864-2.415-2.472-2.415-4.194v-10.11c0-.47-.382-.852-.851-.852h-4.183c-1.104 0-2-.896-2-2s.896-2 2-2h4.183c2.675 0 4.851 2.177 4.851 4.852v10.108c0 .302.162.583.424.734l5.106 2.968c.616.358.995 1.017.995 1.729s-.379 1.371-.995 1.729l-5.105 2.967c-.263.152-.425.434-.425.735v10.108c0 2.677-2.176 4.854-4.851 4.854z" fill="#fff"/></g><g><path d="m189.655 119.664h-4.183c-2.675 0-4.852-2.177-4.852-4.852v-10.108c0-.302-.162-.584-.423-.734l-5.106-2.968c-.616-.358-.995-1.017-.995-1.729s.379-1.371.995-1.729l5.105-2.967c.262-.151.424-.434.424-.735v-10.11c0-2.675 2.177-4.852 4.852-4.852h4.183c1.104 0 2 .896 2 2s-.896 2-2 2h-4.183c-.47 0-.852.382-.852.852v10.108c0 1.724-.926 3.331-2.415 4.195l-2.129 1.236 2.13 1.237c1.488.863 2.414 2.471 2.414 4.194v10.108c0 .47.382.852.852.852h4.183c1.104 0 2 .896 2 2s-.895 2.002-2 2.002z" fill="#fff"/></g></g><g><g><circle cx="200.816" cy="91.107" fill="#fff" r="2.5"/></g><g><path d="m199.069 110.768h-1.108c-.747 0-1.292-.706-1.104-1.428l1.404-5.383c.131-.502.585-.853 1.104-.853h2.045c.821 0 1.374.842 1.046 1.595l-2.341 5.383c-.181.417-.592.686-1.046.686z" fill="#fff"/></g></g></g></g></svg>