<svg id="Layer_1" enable-background="new 0 0 50 50" height="512" viewBox="0 0 50 50" width="512" xmlns="http://www.w3.org/2000/svg"><g><g><g fill="#e4e8f4"><path d="m6.9650269 6.8245821.0100098-4.5c0-.1699219.0599976-.2998047.1599731-.3500977.0100097-.0097656.0200195-.0097656.0299682-.0097656l.960022-.5703125c.1000366-.0600586.2399902-.0498047.3900146.0400391l3.9199829 2.2602539c.2999878.1699219.5400391.5898438.5400391.9399414l-.0100098 4.5c-.0100098.1699219-.0700073.2900391-.1600342.3500977l-.9799805.5698242-.0100098.0102539c-.0999756.0498047-.2399902.0498047-.3900146-.0400391l-3.9199828-2.2602539c-.2999878-.1801758-.539978-.6000977-.539978-.9399414z"/><path d="m3.9550171 19.8646221.0100098-4.5097666c0-.1704102.0599976-.2900391.1599731-.340332.0100098-.0097656.0200195-.0097656.0300293-.0097656l.9599609-.5703125c.1100464-.0600586.2399902-.0498047.3900146.0400391l3.9199829 2.2602549c.3000488.1699219.5500488.5898438.5400391.9399414l-.0100098 4.5c0 .1699219-.0599976.2900391-.1600342.3500977l-.9599608.5498046c-.1000366.0800781-.2600098.0898438-.4200439-.0097656l-3.9099731-2.2602539c-.3099977-.1801759-.5499879-.6000977-.5499879-.9399415z"/><path d="m11.7250366 17.8646221.0099487-4.500001c0-.1801758.0700073-.2998047.1700439-.3500977 0 0 0 0 .0099487-.0097656l.9700317-.5703125c.0999756-.0498047.2399902-.0498047.3900146.0400391l3.9199829 2.2602539c.2999878.1796875.539978.5996094.539978.9399414l-.0099487 4.500001c0 .1801758-.0600586.2998047-.1600342.3500977l-.960022.5595703c-.0099487.0102539-.0199585.0205078-.0299683.0205078-.0999756.0595703-.2399902.0498047-.3900146-.0400391l-3.9199829-2.2602539c-.2999875-.1699219-.5399778-.5898437-.5399778-.9399414z"/><path d="m48.414978 26.1346416-.0099487 4.5c-.0100098.1699219-.0700073.2900391-.1600342.3500977l-1 .5800781c.0100098-.0102539.0200195-.0102539.0200195-.0205078-.0100098.0102539-.0200195.0102539-.039978.0205078l-.0200195 5.4697247c0 .1601563-.0599976.2700195-.1500244.3300781l-.6199951.3598633c.0499878-.0297852.0800171-.0698242.1099854-.1298828-.0799561.1298828-.2099609.1801758-.3899536.1000977.1199951.0800781.1799927.1699219.1900024.2700195l-.0100098 1.4296875c0 .1103516-.0700073.2202148-.2000122.300293l-10.0800171 5.8598633-7.289978 3.3100586c-.2800293.1499023-.7399902.1499023-1.0200195 0l-25.9400025-14.9799806c-.1499634-.0800781-.2199707-.1899414-.2199707-.300293l.0100098-.4794922s0-.0102539 0-.0205078h.0099487c0-.1098633.0700073-.2099609.2000122-.2797852l17.3699951-10.1000957c.2600098-.1499023.6900024-.1499023.9700317-.0097656-.2800293-.1699219-.5100098-.5600586-.5-.8901367l.0499878-20.0800781c0-.1801758.0800171-.2998047.1900024-.3398438l.5700073-.3300781c.0899658-.0498047.2199707-.0400391.3599854.0297852l16.2600098 9.3901367.0100098-2.2797852c0-.1801758.0599976-.300293.1599731-.3500977.0100098-.0102539.0200195-.0102539.0300293-.0102539l.9599609-.5698242c.1000367-.0498056.2400513-.0498056.3900147.0400382l3.9199829 2.2602539c.3000488.1796875.5400391.5996094.5400391.9399414l-.0100098 3.4296875 3.6699829 2.1201181c.2900391.1699219.5200195.5698242.5200195.8999023l-.0200195 7.8798828.6199951.3603516c.2999878.1699219.5499878.5898438.5499878.9399414z"/></g><g><g><g><g enable-background="new"><g><path d="m46.3472214 37.9598541-.0087738 1.4381561c0 .105526-.0705833.2205238-.202919.299778l-10.0806618 5.8568878-7.2879467 3.3049736c-.2822781.1589317-.7409363.1589317-1.0232143 0l-25.9426735-14.9780883c-.1411127-.0792542-.211696-.1852074-.211696-.299778l.0088296-.508812c0 .105957.0705833.2205238.2116961.300209l25.9338436 14.9780884c.2822781.1585007.7497654.1585007 1.0232143 0l17.3686085-10.0912056c.1411669-.0796813.211693-.1942519.211693-.300209z" fill="#cad0dd"/></g><g><path d="m46.1338387 37.6854744c.2815857.1625748.2830086.4292641.0034256.5917397l-17.367899 10.0931205c-.2798862.1626511-.740303.1626968-1.0218887.0001259l-25.9406514-14.9768448c-.2815944-.1625786-.2830098-.4292603-.0031223-.5919151l17.367897-10.0931187c.2795849-.1624775.7399902-.162529 1.0215855.0000496z" fill="#e4e8f4"/></g></g></g><g><g><path d="m47.2614822 16.949688-.0529251 20.0854988c0 .1589317-.0617523.2735023-.1499405.3264809l-.6263123.3618011c.0970192-.0529785.1499405-.1679802.1499405-.3264809l.0617561-20.0854988c0-.3264828-.2293549-.7231693-.5116348-.8911476l-25.9337901-14.9690437c-.1411667-.0882964-.2734489-.0882964-.3705215-.0353185l.6263123-.3618c.0881882-.0525472.2205257-.0439329.3616924.0353185l25.9337883 14.9694738c.2822799.167547.5116347.5646666.5116347.8907164z" fill="#e4e8f4"/></g><g><path d="m46.1462936 16.4020996c.2815819.162571.5117569.560976.5108376.8846951l-.0569496 20.0875912c-.0009155.3233795-.2325935.4554787-.5141716.2929077l-25.9350319-14.9735985c-.2872276-.1658306-.5117512-.5613174-.5108356-.8846951l.0569496-20.0875931c.0009174-.3237194.2269459-.4587361.5141735-.2929047zm.138485 20.7901878.0569496-20.0875912c.0003471-.1228867-.0838356-.2752419-.1964607-.3402634l-25.9350281-14.9735972c-.1126232-.0650229-.203043-.0134773-.203392.1094096l-.0569477 20.0875931c-.0003681.1292133.0894833.2785015.2021065.343523l25.93503 14.9735966c.1126212.0650258.1973762.0165448.1977424-.1126705" fill="#e4e8f4"/></g><g><path d="m46.1464272 16.7602654-25.9337883-14.9690426c-.1146774-.0620229-.2029209-.0176593-.2029209.105525l-.061699 20.0945432c0 .1236134.0881882.2735023.2028656.3441391l25.9337902 14.9690437c.1146774.0620232.202919.0176582.202919-.1145706l.0529251-20.0854969c.0000001-.1236152-.0794143-.2735042-.1940917-.3441409zm-.7674256 9.5709018-.026432 8.9179401-24.4607487-14.122261.0529232-17.8272629 24.4607468 14.1222582z" fill="#5b5e71"/></g><path d="m20.9447441 3.2995842-.0529232 17.8272621 24.4607487 14.1222611.0529213-17.8272648z" fill="#748bfd"/></g><g><g><path d="m21.3156242 24.2279453c.1138687.0660362.1089497.1694012.0008564.2319374l-.539875.3123474c-.1133633.065588-.2865467.0652637-.4004154-.0007725l-1.1604137-.6729565c-.1138687-.0660362-.1142216-.1663513-.0008564-.2319393l.539875-.3123474c.1080914-.0625362.2865467-.0652637.4004173.0007725z" fill="#5b5e71"/></g><g><path d="m20.2197628 24.8619595c.1138706.0660362.1086578.1695709.0008583.2319393l-1.1608925.6716385c-.1080914.0625362-.2865467.0652637-.4004173-.0007725l-1.1604118-.6729565c-.1138687-.0660362-.1089497-.1694031-.0008564-.2319393l1.1608906-.6716385c.1077995-.0623684.2865486-.0652657.4004173.0007706z" fill="#5b5e71"/></g><g><path d="m28.359457 28.3128738c.1084461.062891.1089497.1694012.0008583.2319393l-.539875.3123455c-.1133652.065588-.2919712.0621204-.4004173-.0007706l-1.1658363-.6761036c-.1084442-.062891-.1087971-.1632061.0045681-.2287941l.5398731-.3123455c.1080933-.0625381.2865486-.0652657.3949947-.0023746z" fill="#5b5e71"/></g><g enable-background="new"><g><path d="m26.5971336 27.2908497c.1138878.0660477.1089497.1694012.0008583.2319393l-.539875.3123474c-.1133652.0655861-.2865295.0652733-.4004173-.0007725l-1.1604118-.6729584c-.1138706-.0660362-.1142044-.1663399-.0008392-.2319279l.539875-.3123474c.1080914-.0625362.2865295-.0652752.4003983.000761z" fill="#5b5e71"/></g><g><path d="m25.3223324 27.8210907c.1138878.0660477.1086578.1695728.0008583.2319393l-1.1608925.6716385c-.1080914.0625381-.2865295.0652752-.4004173-.0007706l-1.1604118-.6729584c-.1138687-.0660362-.1089497-.1694012-.0008564-.2319393l1.1608906-.6716385c.1077995-.0623684.2865486-.0652637.4004173.0007725z" fill="#5b5e71"/></g></g><g><path d="m30.1217632 29.3348866c.1084461.062891.1089497.1694031.0008564.2319393l-.5398731.3123474c-.1133652.065588-.2919731.0621185-.4004173-.0007725l-1.1658363-.6761036c-.1084461-.062891-.1142216-.1663513-.0008583-.2319393l.539875-.3123455c.1080933-.0625381.2919712-.0621185.4004173.0007725z" fill="#5b5e71"/></g><g><path d="m32.1275787 31.7676563c.108448.062891.1086578.1695709.0008583.2319393l-1.1608925.6716385c-.1080914.0625381-.2919712.0621185-.4004173-.0007706l-1.1658363-.6761035c-.1084442-.062891-.1089478-.1694031-.0008564-.2319393l1.1608906-.6716385c.1077995-.0623684.2919731-.0621204.4004173.0007706z" fill="#5b5e71"/></g><g><path d="m35.4032936 32.3978043c.1084442.0628891.1089287.1693916.0008354.231926l-.5398712.3123474c-.1133652.0655899-.291954.06213-.4004021-.0007591l-1.1658516-.6761169c-.108448-.0628891-.1142044-.1663399-.0008392-.231926l.539875-.3123474c.1080894-.0625381.2919502-.06213.4003983.000761z" fill="#5b5e71"/></g><g><path d="m33.8302383 32.7550774c.1084633.0629044.1032333.1664276-.0045662.2287941l-1.1608925.6716385c-.1080933.0625381-.2865295.0652771-.3949928.0023766l-1.1658363-.6761055c-.1138706-.0660362-.1089497-.1694031-.0008583-.2319374l1.1608925-.6716385c.1077995-.0623703.2865486-.0652657.4004173.0007706z" fill="#5b5e71"/></g><g enable-background="new"><g><path d="m19.3971252 26.3178673c.1084633.0629025.1089497.1694031.0008564.2319393l-1.1608906.6716385c-.1077995.0623684-.291954.06213-.4004173-.0007706l-2.0063171-1.1635246c-.1138697-.0660362-.1086569-.1695709-.0008574-.2319374l1.1608915-.6716404c.1080914-.0625362.2865467-.0652637.4004173.0007725z" fill="#5b5e71"/></g><g><path d="m21.0672569 27.2864265c.1084633.0629025.1089497.1694031.0008564.2319393l-1.1608906.6716385c-.1077995.0623684-.291954.06213-.4004173-.0007706l-1.1658363-.6761036c-.1084461-.062891-.1086388-.1695614-.0008392-.2319279l1.1608925-.6716404c.1080914-.0625362.2919521-.0621281.4003983.0007629z" fill="#5b5e71"/></g><g><path d="m22.7319641 28.2518406c.1084652.0629025.1089497.1694031.0008583.2319393l-1.1608925.6716385c-.1077976.0623684-.2919521.06213-.4004173-.0007706l-1.1604118-.6729584c-.1138687-.0660362-.1086559-.1695709-.0008564-.2319393l1.1608906-.6716385c.1080933-.0625381.2865486-.0652637.4004173.0007725z" fill="#5b5e71"/></g><g><path d="m19.8165531 28.4937477c.1084461.062891.1032143.1664162-.0045853.2287846l-1.1608906.6716385c-.1080933.0625362-.2812576.0622234-.3897038-.0006676l-1.1658534-.6761131c-.1084461-.062891-.1142044-.1663399-.0061111-.228878l1.1608906-.6716385c.1077995-.0623684.291954-.06213.4003983.000761z" fill="#5b5e71"/></g><g><path d="m27.0250092 28.8085251c.1084461.062891.1086388.1695595.0008392.2319279l-1.1608906.6716385c-.1080933.0625381-.291954.06213-.4004002-.000761l-1.1658363-.6761036c-.1084633-.0629005-.1089478-.1694012-.0008564-.2319393l1.1608906-.6716385c.1077995-.0623665.291954-.06213.4004173.0007725z" fill="#5b5e71"/></g><g><path d="m17.2315903 28.9276333c.1084652.0629005.1035252.166256-.0045662.2287941l-1.1553249.6684189c-.1133661.0655861-.2865305.0652752-.3949938.0023727l-3.1125069-1.8050346c-.1084452-.062891-.1142216-.1663513-.0008574-.2319393l1.1553259-.6684189c.1080923-.0625381.2919722-.0621185.4004173.0007725z" fill="#5b5e71"/></g><g><path d="m24.4346409 29.2392731c.1084461.062891.1089325.1693916.0008392.2319298l-1.1608906.6716385c-.1077995.0623684-.291954.06213-.4004002-.000761l-1.1658344-.6761036c-.1084652-.0629005-.1086578-.1695709-.0008583-.2319393l1.1608925-.6716385c.1080914-.0625362.2919521-.06213.4004173.0007725z" fill="#5b5e71"/></g><g><path d="m21.4812603 29.4591618c.1084461.062891.1086388.1695614.0008392.2319298l-1.1608905.6716384c-.1080933.0625362-.2866802.0590782-.3951263-.0038128l-1.1658554-.6761131c-.1084442-.062891-.1142025-.1663418-.0061111-.228878l1.1608925-.6716385c.1077976-.0623684.2919521-.06213.4003983.000761z" fill="#5b5e71"/></g><g><path d="m28.7276688 29.7959461c.1084442.062891.1032314.1664257-.0045681.2287941l-1.1608906.6716385c-.1080933.0625381-.2865486.0652657-.3949928.0023746l-1.1658363-.6761036c-.1084461-.062891-.1089497-.1694031-.0008583-.2319393l1.1608925-.6716385c.1077995-.0623684.2919712-.0621185.4004173.0007725z" fill="#5b5e71"/></g><g><path d="m19.0426826 29.9151592c.1138706.0660362.1086559.1695709.0008583.2319374l-1.1608925.6716404c-.1080914.0625362-.2865467.0652637-.4004173-.0007725l-1.1604118-.6729584c-.1084461-.062891-.1089497-.1694012-.0008564-.2319393l1.1608906-.6716385c.1077995-.0623665.2919712-.0621185.4004173.0007725z" fill="#5b5e71"/></g><g><path d="m26.131876 30.2235508c.1138706.0660362.1089497.1694012.0008583.2319393l-1.1608925.6716385c-.1077995.0623684-.2865467.0652637-.4004173-.0007725l-1.1604118-.6729565c-.1084461-.062891-.1086559-.1695728-.0008564-.2319393l1.1608906-.6716385c.1080914-.0625381.2919712-.0621185.4004173.0007706z" fill="#5b5e71"/></g><g><path d="m23.1839199 30.4465847c.1084461.062891.1086559.1695709.0008564.2319393l-1.1608906.6716385c-.1080933.0625381-.2866993.0590687-.3951454-.0038223l-1.1658363-.6761036c-.1084442-.062891-.1142216-.1663513-.0061302-.2288876l1.1608925-.6716385c.1077995-.0623684.2919712-.0621204.4004173.0007706z" fill="#5b5e71"/></g><g><path d="m16.897459 30.7228355c.1084461.062891.1142216.1663513.0008583.2319393l-1.3012066.7528191c-.1080923.0625362-.2919722.0621185-.4004173-.0007725l-1.1604128-.6729584c-.1138697-.0660362-.1089487-.1694012-.0008574-.2319393l1.3012066-.7528172c.1133652-.065588.2865477-.0652657.4004173.0007706z" fill="#5b5e71"/></g><g><path d="m20.7453423 30.9025803c.1138687.0660362.1086559.1695709.0008564.2319393l-1.1608906.6716385c-.1080933.0625381-.2865486.0652657-.4004173-.0007706l-1.1604118-.6729584c-.1138706-.0660362-.1089497-.1694012-.0008583-.2319393l1.1608925-.6716385c.1077976-.0623684.2865467-.0652637.4004154.0007725z" fill="#5b5e71"/></g><g><path d="m27.8345528 31.2109833c.1138706.0660362.1089306.1693916.0008392.2319298l-1.1608925.6716385c-.1077976.0623665-.2865276.0652733-.4003983-.0007629l-1.1604309-.6729679c-.1138687-.0660362-.1086369-.1695595-.0008373-.2319279l1.1608906-.6716385c.1080914-.0625362.2865295-.0652752.4003983.000761z" fill="#5b5e71"/></g><g><path d="m24.8811531 31.4308624c.1138897.0660458.1086578.1695709.0008583.2319374l-1.1608925.6716385c-.1080914.0625381-.2812557.0622253-.3951435-.0038223l-1.1604118-.6729565c-.1138706-.0660362-.1142235-.1663513-.0061302-.2288895l1.1608906-.6716385c.1077995-.0623665.2865486-.0652637.4004173.0007725z" fill="#5b5e71"/></g><g><path d="m22.448019 31.8900146c.1084442.0628891.1086369.1695595.0008373.231926l-1.1608906.6716385c-.1080914.0625381-.291954.06213-.4003983-.0007591l-1.1658363-.6761017c-.1084652-.0629044-.1089497-.1694031-.0008583-.2319412l1.1608925-.6716385c.1077995-.0623684.2919521-.06213.4004173.0007725z" fill="#5b5e71"/></g><g><path d="m18.9634228 31.9209499c.1084652.0629005.108799.1632061-.0045662.2287922l-1.3012066.7528191c-.1080914.0625381-.2865295.0652771-.3949928.0023727l-1.5345659-.8899384c-.1084452-.062891-.1089306-.1693916-.0008392-.2319298l1.3012056-.7528172c.1133652-.065588.291954-.06213.4004002.000761z" fill="#5b5e71"/></g><g><path d="m29.5372105 32.1984062c.1084461.0628891.1089497.1694031.0008583.2319374l-1.1608925.6716385c-.1077976.0623703-.2919712.0621223-.4004154-.0007706l-1.1658363-.6761017c-.1084461-.0628929-.1086578-.1695709-.0008583-.2319412l1.1608925-.6716385c.1080914-.0625362.2919712-.0621185.4004173.0007725z" fill="#5b5e71"/></g><g><path d="m26.5838299 32.418293c.1084461.0628929.1086388.1695633.0008392.2319298l-1.1608906.6716385c-.1080933.0625381-.2866802.0590782-.3951263-.0038109l-1.1658363-.6761055c-.1084633-.0629005-.1142216-.1663513-.0061302-.2288857l1.1608925-.6716404c.1077976-.0623665.2919521-.0621281.4004173.0007725z" fill="#5b5e71"/></g><g><path d="m24.1506767 32.8774376c.1084461.0628891.1086559.1695709.0008564.2319374l-1.1608906.6716385c-.1080914.0625381-.2919712.0621185-.4004173-.0007706l-1.1658363-.6761055c-.1084461-.0628891-.1089497-.1693993-.0008564-.2319374l1.1608906-.6716385c.1077995-.0623665.2919712-.0621185.4004173.0007706z" fill="#5b5e71"/></g><g><path d="m37.165596 33.4198151c.108448.0628929.1089516.1694031.0008583.2319412l-.539875.3123474c-.1133652.0655861-.2919693.0621185-.4004173-.0007744l-1.1658363-.6761017c-.1084442-.0628929-.1142197-.1663513-.0008545-.2319412l.5398712-.3123436c.1080933-.0625381.2919731-.0621223.4004173.0007706z" fill="#5b5e71"/></g><g><path d="m31.2398701 33.1858292c.1084461.0628891.1035252.166256-.0045662.2287941l-1.1608925.6716385c-.1077995.0623665-.2865467.0652618-.3949928.0023727l-1.1658363-.6761017c-.1138706-.0660362-.1086559-.1695747-.0008564-.2319412l1.1608906-.6716385c.1080914-.0625381.2865467-.0652657.4004173.0007706z" fill="#5b5e71"/></g><g><path d="m28.281065 33.4025726c.1138706.0660362.1086559.1695709.0008564.2319374l-1.1608906.6716385c-.1080914.0625381-.2812748.0622139-.3951435-.0038223l-1.1604137-.6729584c-.1084442-.0628891-.1142216-.1663513-.0061302-.2288857l1.1608925-.6716385c.1077995-.0623703.2919712-.0621223.4004173.0007706z" fill="#5b5e71"/></g><g><path d="m35.5274887 33.7393646c.1138725.0660362.1086388.1695633.0008392.2319298l-1.1608887.6716385c-.1080933.0625381-.2865295.0652771-.4004021-.0007591l-1.1604118-.6729584c-.1138878-.0660477-.1089478-.1694031-.0008545-.2319412l1.1608887-.6716385c.1077995-.0623665.2865295-.0652733.4004173.0007744z" fill="#5b5e71"/></g><g><path d="m25.8479118 33.8617134c.1138878.0660477.1086559.1695709.0008564.2319374l-1.1608906.6716385c-.1080933.0625381-.2865295.0652771-.4004173-.0007706l-1.1604118-.6729584c-.1138706-.0660362-.1089325-.1693916-.0008392-.231926l1.1608906-.6716385c.1077995-.0623703.2865295-.0652771.4004002.0007591z" fill="#5b5e71"/></g><g><path d="m38.9224777 34.4386826c.1138878.0660477.1089516.1694031.0008583.2319412l-.539875.3123474c-.1133652.0655861-.2865295.0652733-.4004173-.0007744l-1.1604118-.6729546c-.1138687-.06604-.1142044-.1663437-.0008392-.2319298l.539875-.3123474c.1080933-.0625381.2865295-.0652733.4003983.0007629z" fill="#5b5e71"/></g><g><path d="m32.9371223 34.1701164c.1084442.0628891.1089325.1693916.0008392.2319298l-1.1608925.6716385c-.1077976.0623665-.2919521.0621262-.4003983-.0007629l-1.1604118-.6729584c-.1138878-.0660477-.1086559-.1695709-.0008564-.2319374l1.1608906-.6716385c.1080914-.0625381.2865295-.0652771.4004173.0007706z" fill="#5b5e71"/></g><g><path d="m29.9837418 34.3900032c.1138706.0660362.1086388.1695633.0008392.2319298l-1.1608925.6716385c-.1080914.0625381-.2812557.0622253-.3951244-.0038109l-1.1604309-.6729698c-.1138706-.0660362-.1142044-.1663399-.0061111-.228878l1.1608906-.6716385c.1077995-.0623665.2865295-.0652733.4003983.0007629z" fill="#5b5e71"/></g><g><path d="m37.2301483 34.7267876c.108448.0628929.1086578.1695709.0008583.2319412l-1.1608925.6716385c-.1080933.0625381-.2919693.0621185-.4004173-.0007744l-1.1658363-.6761017c-.1084442-.0628891-.1089478-.1694031-.0008583-.2319374l1.1608925-.6716385c.1077995-.0623703.2919731-.0621223.4004173.0007706z" fill="#5b5e71"/></g><g><path d="m27.5505886 34.849144c.1084442.0628929.1086559.1695747.0008564.2319412l-1.1608906.6716385c-.1080933.0625381-.2919731.0621185-.4004173-.0007706l-1.1658363-.6761055c-.1084461-.0628891-.1035252-.166256.0045662-.2287941l1.1608925-.6716385c.1077976-.0623665.2865467-.0652618.3949928-.0023727z" fill="#5b5e71"/></g><g><path d="m40.684803 35.4607086c.1084442.0628891.1089478.1694031.0008583.2319374l-.539875.3123474c-.1133652.0655899-.2919731.0621185-.4004173-.0007706l-1.1658363-.6761055c-.108448-.0628891-.108799-.1632042.0045662-.2287903l.539875-.3123474c.1080933-.0625381.2865486-.0652657.3949928-.0023766z" fill="#5b5e71"/></g><g><path d="m34.639782 35.1575394c.1084442.0628891.1089478.1693993.0008545.2319374l-1.1608887.6716385c-.1077995.0623703-.2919731.0621185-.4004173-.0007706l-1.1658363-.6761055c-.1084461-.0628891-.1086578-.1695709-.0008583-.2319374l1.1608925-.6716385c.1080933-.0625381.2919693-.0621185.4004173.0007706z" fill="#5b5e71"/></g><g><path d="m31.6863995 35.3774261c.1084461.0628929.1086578.1695709.0008583.2319412l-1.1608925.6716385c-.1080914.0625343-.2866974.0590668-.3951435-.0038223l-1.1658363-.6761055c-.1084461-.0628891-.1142216-.1663513-.0061302-.2288895l1.1608925-.6716385c.1077976-.0623665.2919712-.0621185.4004173.0007744z" fill="#5b5e71"/></g><g><path d="m38.9274025 35.7110748c.1138687.0660362.1086388.1695633.0008392.2319298l-1.1608925.6716385c-.1080933.0625381-.2865295.0652771-.4003983-.0007629l-1.1604309-.672966c-.1084442-.0628929-.1089325-.1693916-.0008392-.2319298l1.1608925-.6716385c.1077995-.0623665.291954-.06213.4003983.0007629z" fill="#5b5e71"/></g><g><path d="m29.2532463 35.8365669c.1084461.0628929.1032333.1664276-.0045662.2287941l-1.1608925.6716385c-.1080914.0625381-.2865467.0652657-.3949928.0023727l-1.1658363-.6761017c-.1084461-.0628891-.1089497-.1694031-.0008564-.2319374l1.1608906-.6716385c.1077995-.0623703.2919712-.0621185.4004173.0007706z" fill="#5b5e71"/></g><g><path d="m42.4471245 36.4827309c.108448.0628929.1089134.1693802.000824.2319183l-.539875.3123474c-.1133652.0655861-.291935.0621414-.400383-.0007515l-1.1658516-.6761131c-.108448-.0628891-.1142235-.1663513-.0008583-.2319374l.539875-.3123474c.1080894-.0625381.2919693-.0621185.4004173.0007706z" fill="#5b5e71"/></g><g><path d="m36.3370323 36.1418266c.1138725.0660362.1089325.1693916.0008392.231926l-1.1608887.6716385c-.1077995.0623703-.2865295.0652771-.4004021-.0007591l-1.1604309-.6729698c-.1084442-.0628891-.1086349-.1695595-.0008354-.231926l1.1608887-.6716385c.1080933-.0625381.291954-.06213.4003983.0007591z" fill="#5b5e71"/></g><g><path d="m33.3890572 36.3648491c.1084671.0629005.1086578.1695709.0008583.2319374l-1.1608925.6716423c-.1080894.0625343-.2866783.0590782-.3951435-.0038261l-1.1658363-.6761017c-.1084442-.0628891-.1142216-.1663513-.0061283-.2288895l1.1608906-.6716385c.1077995-.0623665.2919712-.0621185.4004154.0007744z" fill="#5b5e71"/></g><g><path d="m40.5975151 36.6796265c.1084633.0629005.1086578.1695709.0008583.2319374l-1.1608925.6716385c-.1080933.0625381-.291954.06213-.4004173-.0007706l-1.1658363-.6761055c-.1084442-.0628891-.1089287-.1693916-.0008392-.231926l1.1608925-.6716385c.1077995-.0623703.291954-.06213.4003983.0007591z" fill="#5b5e71"/></g><g><path d="m27.4550743 36.8455124c.1084461.0628891.1142044.1663399.0008392.231926l-1.3012066.7528191c-.1080914.0625381-.291954.06213-.4003983-.0007591l-7.9222851-4.5943718c-.1084442-.0628891-.1089497-.1693993-.0008564-.2319374l1.3012066-.7528191c.1133633-.0655861.2919712-.0621185.4004173.0007706z" fill="#5b5e71"/></g><g><path d="m38.0396919 37.1292496c.1138687.0660362.1089478.1693993.0008583.2319374l-1.1608925.6716385c-.1077995.0623665-.2865486.0652657-.4004173-.0007706l-1.1658363-.6761055c-.1084442-.0628891-.1032333-.1664238.0045662-.2287903l1.1608925-.6716423c.1080933-.0625343.2865486-.0652618.3949928-.0023727z" fill="#5b5e71"/></g><g><path d="m35.0863113 37.3491364c.1138687.0660362.1086388.1695595.0008392.2319298l-1.1608925.6716385c-.1080894.0625343-.2812538.0622253-.3951263-.0038147l-1.1604118-.6729546c-.1138878-.0660477-.1142197-.1663513-.0061302-.2288895l1.1608925-.6716385c.1077995-.0623665.2865295-.0652771.4004173.0007706z" fill="#5b5e71"/></g><g><path d="m32.6531563 37.8082771c.108448.0628929.1086578.1695709.0008583.2319412l-1.1608906.6716385c-.1080933.0625343-.2919731.0621185-.4004173-.0007744l-1.1658363-.6761017c-.1084461-.0628891-.1089497-.1694031-.0008583-.2319374l1.1608925-.6716423c.1077995-.0623665.2919712-.0621185.4004173.0007744z" fill="#5b5e71"/></g><g><path d="m39.7423706 38.1166801c.1084442.0628929.1089096.1693802.0008202.2319183l-1.1608925.6716385c-.1077995.0623665-.291935.0621414-.4003792-.0007515l-1.1658554-.6761131c-.108448-.0628891-.1086578-.1695709-.0008583-.2319374l1.1608925-.6716385c.1080933-.0625381.2919693-.0621185.4004173.0007706z" fill="#5b5e71"/></g><g><path d="m43.1135712 38.1387596c.1084442.0628929.1032143.1664162-.0045853.2287827l-1.1608925.6716385c-.1080894.0625381-.2865295.0652771-.3949738.0023842l-2.0117416-1.166668c-.1084442-.0628891-.1089478-.1694031-.0008583-.2319374l1.1608925-.6716385c.1077995-.0623703.2919731-.0621185.4004173.0007706z" fill="#5b5e71"/></g><g><path d="m29.5373116 38.0530624c.1084442.0628891.1142216.1663513.0008564.2319374l-1.3012066.7528191c-.1080914.0625381-.2919712.0621185-.4004173-.0007706l-1.5291405-.886795c-.1138706-.0660362-.1089497-.1694031-.0008583-.2319412l1.3012066-.7528152c.1133652-.0655899.2865467-.0652657.4004173.0007706z" fill="#5b5e71"/></g><g><path d="m36.7889709 38.3365593c.1084442.0628891.108654.1695709.0008545.2319374l-1.1608887.6716385c-.1080933.0625381-.2867012.0590706-.3951454-.0038223l-1.1658363-.6761017c-.1084442-.0628929-.1142235-.1663513-.0061302-.2288895l1.1608925-.6716385c.1077995-.0623665.2919693-.0621185.4004173.0007706z" fill="#5b5e71"/></g><g><path d="m34.3503914 38.7925529c.1138878.0660477.1086578.1695747.0008583.2319412l-1.1608925.6716385c-.1080933.0625381-.2865295.0652733-.4004173-.0007706l-1.1604118-.6729584c-.1138687-.0660362-.1089306-.1693916-.0008392-.2319298l1.1608925-.6716385c.1077995-.0623665.2865295-.0652733.4003983.0007629z" fill="#5b5e71"/></g><g><path d="m41.4450264 39.1041031c.108448.0628929.103508.1662445-.0045853.2287827l-1.1608887.6716385c-.1077995.0623703-.2865295.0652771-.3949776.0023842l-1.1658363-.6761017c-.1138878-.0660477-.108654-.1695709-.0008545-.2319412l1.1608887-.6716385c.1080933-.0625343.2865295-.0652733.4004173.0007744z" fill="#5b5e71"/></g><g><path d="m31.321312 39.0876579c.1138706.0660362.1142235.1663513.0008583.2319374l-1.3012066.7528191c-.1080914.0625381-.2865467.0652657-.4004173-.0007706l-1.1929569-.6918335c-.1084461-.0628891-.1089306-.1693878-.0008392-.231926l1.3012066-.7528191c.1133652-.0655861.291954-.06213.4003983.0007629z" fill="#5b5e71"/></g><g><path d="m39.7496758 40.0535583c.1084442.0628929.1086197.1695518.0008202.2319183l-1.1608925.6716385c-.1080933.0625381-.2866631.0590897-.3951073-.0037994l-2.4076118-1.396244c-.1138687-.0660362-.1142197-.1663513-.0061302-.2288895l1.1608925-.6716385c.1077995-.0623703.2865486-.0652657.4004173.0007706z" fill="#5b5e71"/></g><g><path d="m32.2787514 40.5062294c.1138687.0660362.1142197.1663513.0008583.2319412l-.5559883.3216667c-.1080914.0625381-.2865467.0652657-.4004173-.0007706l-1.1929379-.6918221c-.1138878-.0660477-.1089497-.1694031-.0008564-.2319374l.5559845-.3216705c.1133652-.0655861.2865295-.0652733.4004173.0007744z" fill="#5b5e71"/></g><g><path d="m38.081131 41.0189018c.1084442.0628929.1089134.1693802.0008202.2319183l-1.1553268.6684189c-.1133652.0655861-.291935.0621414-.4003792-.0007515l-3.2480927-1.8836632c-.1084442-.0628929-.1142197-.1663513-.0008545-.2319412l1.155323-.6684189c.1080933-.0625343.2919731-.0621185.4004173.0007744z" fill="#5b5e71"/></g><g><path d="m34.7266464 41.0625114c.108448.0628929.1142235.1663513.0008583.2319412l-1.3012047.7528191c-.1080933.0625343-.2919731.0621185-.4004173-.0007744l-1.1983814-.6949768c-.1084461-.0628891-.1089497-.1693993-.0008583-.2319374l1.3012066-.7528191c.1133652-.0655861.2919731-.0621185.4004173.0007706z" fill="#5b5e71"/></g><g><path d="m35.7003403 42.4905128c.1138878.0660477.1142235.1663513.0008583.2319374l-.5559883.3216705c-.1080894.0625343-.2865295.0652733-.4004173-.0007744l-1.1929359-.6918182c-.1138878-.0660477-.1089516-.1694031-.0008583-.2319412l.5559845-.3216667c.1133652-.0655899.2865295-.0652771.4004173.0007706z" fill="#5b5e71"/></g></g><g><path d="m18.1301479 27.5157528c.1084461.062891.1086578.1695709.0008583.2319393l-1.1608925.6716385c-.1080914.0625362-.2866974.0590687-.3951435-.0038223l-2.4075918-1.3962345c-.1138697-.0660362-.1142225-.1663513-.0061302-.2288895l1.1608915-.6716385c.1077995-.0623665.2865477-.0652637.4004173.0007725z" fill="#5b5e71"/></g><g><path d="m24.8402538 26.2719822c.1084442.062891.1035252.166256-.0045681.2287922l-.539875.3123474c-.1133633.065588-.2865467.0652657-.3949928.0023746l-1.1658363-.6761036c-.1084442-.062891-.1142216-.1663513-.0008564-.2319393l.539875-.3123474c.1080914-.0625362.2919712-.0621185.4004173.0007725z" fill="#5b5e71"/></g><g><path d="m23.0779476 25.2499676c.1084461.062891.1089306.1693916.0008392.2319298l-.539875.3123455c-.1133652.065588-.291954.06213-.4003983-.000761l-1.1658363-.6761017c-.1084652-.0629025-.1142235-.1663513-.0008583-.2319393l.539875-.3123474c.1080933-.0625381.291954-.06213.4004173.0007725z" fill="#5b5e71"/></g><g><path d="m23.6250992 26.8368149c.1084442.062891.1086559.1695709.0008564.2319393l-1.1608906.6716385c-.1080933.0625362-.2919731.0621185-.4004173-.0007725l-1.1658363-.6761036c-.1084461-.062891-.1089497-.1694012-.0008583-.2319374l1.1608925-.6716404c.1077995-.0623665.2919712-.0621185.4004173.0007725z" fill="#5b5e71"/></g><g><path d="m21.9224396 25.8493919c.1084461.062891.1086388.1695614.0008392.2319279l-1.1608906.6716404c-.1080933.0625362-.291954.0621281-.4004002-.0007629l-1.1658535-.6761131c-.1084461-.062891-.1089306-.1693916-.0008392-.2319279l1.1608906-.6716385c.1077995-.0623684.291954-.06213.4004002.000761z" fill="#5b5e71"/></g><g><path d="m13.5083961 28.7574177c.1084461.062891.1142225.1663513.0008574.2319374l-1.3012066.7528191c-.1080914.0625381-.2919712.0621185-.4004164-.0007725l-1.1658363-.6761017c-.1084461-.062891-.1035252-.1662579.0045662-.2287941l1.3012066-.7528191c.1133652-.065588.2865477-.0652637.3949928-.0023727z" fill="#5b5e71"/></g><g><path d="m15.2056303 29.7416935c.1084642.0629025.1142225.1663513.0008574.2319393l-1.3012056.7528191c-.1080923.0625362-.2919531.0621281-.4004173-.0007725l-1.1658363-.6761036c-.1084461-.062891-.1089306-.1693916-.0008392-.2319279l1.3012066-.7528191c.1133652-.065588.2919531-.06213.4003992.000761z" fill="#5b5e71"/></g><g><path d="m33.6409683 31.3757782c.1138687.0660362.1089478.1694031.0008583.2319393l-.539875.3123474c-.1133652.065588-.2865486.0652637-.4004173-.0007725l-1.1604118-.6729565c-.1138706-.0660362-.1142235-.1663513-.0008583-.2319393l.539875-.3123474c.1080933-.0625362.2865486-.0652637.4004173.0007725z" fill="#5b5e71"/></g><g><path d="m31.8786621 30.3537655c.1138706.0660362.1089325.1693916.0008392.2319279l-.539875.3123474c-.1133633.065588-.2865276.0652752-.4003983-.000761l-1.1604118-.6729584c-.1084633-.0629005-.1142216-.1663513-.0008564-.2319393l.5398731-.3123455c.1080933-.0625381.291954-.06213.4004173.0007706z" fill="#5b5e71"/></g><g><path d="m30.424921 30.7802334c.1138687.0660381.1086388.1695614.0008392.2319298l-1.1608925.6716385c-.1080914.0625362-.2865295.0652752-.4003983-.000761l-1.1604309-.6729679c-.1138687-.0660381-.1089306-.1693916-.0008392-.2319298l1.1608925-.6716385c.1077995-.0623665.2865295-.0652752.4003983.000761z" fill="#5b5e71"/></g><g><path d="m44.2094307 37.5047455c.108448.0628891.103508.1662445-.0045853.2287827l-.539875.3123474c-.1133652.0655861-.2865295.0652733-.3949738.0023842l-1.1658363-.6761017c-.1138878-.0660477-.1142235-.1663513-.0008583-.2319412l.539875-.3123474c.1080933-.0625343.2865295-.0652733.4004173.0007744z" fill="#5b5e71"/></g><g><path d="m30.9504986 36.8208542c.1138706.0660362.1086388.1695633.0008392.2319298l-1.1608906.6716385c-.1080933.0625381-.2865295.0652771-.4004002-.0007591l-1.160429-.6729698c-.1138706-.0660362-.1089325-.1693916-.0008392-.2319298l1.1608906-.6716385c.1077995-.0623665.2865295-.0652733.4004002.0007629z" fill="#5b5e71"/></g></g><g><path d="m25.5042839 38.9253006c.1984921.1146011.1995926.2954979.0023212.410141l-5.0993786 2.9634323c-.1972713.1146431-.5097618.1147041-.708252.0001068l-8.8157578-5.082859c-.1950064-.112587-.1994028-.2956047-.0021324-.410244l5.0993786-2.9634361c.1972713-.1146393.5130577-.1125832.708065.0000038z" fill="#cad0dd"/></g><g><g><path d="m44.207058 39.826683.0018157.6407624 1.4305153-.8259087-.0018158-.6407623z" fill="#5b5e71"/></g><g><path d="m42.5287399 40.7956619.0018158.6407624 1.4305153-.8259087-.0018158-.6407623z" fill="#5b5e71"/></g></g></g><g><g><path d="m22.8603611 7.4803796-.0007458.2627072-.8407955-.485434.0007439-.2627073z" fill="#ed435c"/></g><g><path d="m28.3698788 12.0956392-.0007439.2626038-5.5936565-3.2294989.0007457-.2626037z" fill="#e4e8f4"/></g><g><path d="m24.4915504 9.1403055-.00074.2607308-1.7132988-.989173.00074-.2607317z" fill="#e4e8f4"/></g><g><path d="m24.8576202 7.9173193-.0007438.2627077-2.8360291-1.637383.0007439-.2627072z" fill="#e4e8f4"/></g><g><path d="m24.8596478 7.2023106-.0007439.2626032-2.8360291-1.6373825.0007439-.2626032z" fill="#efac41"/></g><g><path d="m32.5438538 14.5054836-.0007477.2626028-3.8169594-2.2037239.0007439-.2626028z" fill="#ed435c"/></g><g><path d="m24.5508919 10.6069241-.0007458.2626037-1.7766933-1.0257749.0007438-.2626038z" fill="#ed435c"/></g><g><path d="m22.6976871 12.4036713-.0007457.2626037-.6923218-.3997125.0007439-.2626038z" fill="#ed435c"/></g><g><path d="m25.8134899 18.5036144-.0007458.2626038-1.4180145-.8186913.0007458-.2626037z" fill="#3c5dd6"/></g><g enable-background="new"><g><path d="m23.4365883 16.4151306-.0007439.2626038-1.4413719-.8321762.0007458-.2626038z" fill="#ed435c"/></g><g><path d="m24.1318913 17.5327435-.0007439.2626018-2.1387005-1.2347794.0007439-.2626018z" fill="#e4e8f4"/></g><g><path d="m25.6019783 17.6653194-.0007439.2626038-1.9435138-1.1220894.0007438-.2626018z" fill="#efac41"/></g><g><path d="m24.2888374 14.0404806-.00074.2607317-2.2855053-1.3195372.00074-.2607316z" fill="#e4e8f4"/></g><g><path d="m26.0848293 16.5097561-.0007457.2626018-4.0855504-2.3587932.0007439-.2626038z" fill="#e4e8f4"/></g><g><path d="m26.5656452 16.0711765-.0007438.2626038-4.5643406-2.6352244.0007438-.2626037z" fill="#e4e8f4"/></g><g><path d="m25.9808121 14.2991848-.0007458.2626028-2.9761639-1.7182894.0007439-.2626028z" fill="#e4e8f4"/></g><g><path d="m25.9828377 13.5841761-.0007439.2626028-3.9754467-2.2952252.0007439-.2626037z" fill="#e4e8f4"/></g><g><path d="m27.4451771 15.8627939-.0007401.2607317-2.9244499-1.6884327.0007382-.2607307z" fill="#3c5dd6"/></g><g><path d="m25.6078415 12.6514921-.0007458.2626028-2.8377037-1.6383486.0007458-.2626037z" fill="#e4e8f4"/></g><g><path d="m25.3062515 11.7592106-.0007457.2627077-2.5340806-1.4630528.0007439-.2627077z" fill="#3c5dd6"/></g><g><path d="m29.7942104 13.6341562-.0007438.2626038-4.9830742-2.8769789.0007458-.2626037z" fill="#e4e8f4"/></g></g><g><path d="m30.409441 14.7055387-.0007439.2627078-4.7995681-2.7710324.0007438-.2627067z" fill="#e4e8f4"/></g><g><path d="m32.5418243 15.2204924-.0007438.2626028-2.1737328-1.2550049.0007439-.2626038z" fill="#e4e8f4"/></g><g><path d="m32.5458794 13.7904749-.0007401.2607307-5.2883644-3.0532388.0007401-.2607308z" fill="#e4e8f4"/></g><g><path d="m27.0423126 10.6129894-.0007381.2607308-1.935175-1.1172734.0007382-.2607317z" fill="#efac41"/></g><g><path d="m32.5397987 15.9355011-.0007438.2627068-1.7533341-1.0122862.0007458-.2627077z" fill="#e4e8f4"/></g><g><path d="m25.5814724 21.9525337-.0007439.2626038-2.8377037-1.6383496.0007439-.2626037z" fill="#3c5dd6"/></g><g><path d="m26.7262497 21.8972912-.0007458.2626037-3.9804535-2.2981166.0007458-.2626019z" fill="#e4e8f4"/></g><g><path d="m24.7563992 20.0438194-.0007439.2626038-2.0085774-1.1596527.0007439-.2626038z" fill="#e4e8f4"/></g><g><path d="m27.5394096 20.934412-.0007381.2606277-2.8360348-1.6373863.0007382-.2606258z" fill="#e4e8f4"/></g><g><path d="m29.3681774 21.2720928-.0007439.2626038-2.2855052-1.3195381.0007438-.2626019z" fill="#e4e8f4"/></g><g><path d="m33.3834381 20.7236099-.0007439.2626038-5.4318313-3.1360703.0007439-.2626018z" fill="#ed435c"/></g><g><path d="m26.8307648 19.8071175-.0007458.2626018-1.1477547-.6626568.0007439-.2626037z" fill="#e4e8f4"/></g><g><path d="m29.0072517 18.9131966-.0007438.2626037-2.4389916-1.4081535.0007439-.2626019z" fill="#e4e8f4"/></g><g><path d="m40.048111 24.5714607-.0007439.2626038-2.5857887-1.4929066.0007438-.2626037z" fill="#efac41"/></g><g enable-background="new"><g><path d="m30.7682056 21.3642216-.0007438.2626018-2.9578152-1.707695.0007439-.2626018z" fill="#e4e8f4"/></g><g><path d="m32.8055 21.8242741-.0007438.2626037-5.1448937-2.9704056.0007439-.2626037z" fill="#ed435c"/></g><g><path d="m34.5251083 23.5332699-.0007438.2626037-3.3615284-1.9407787.0007457-.2626038z" fill="#e4e8f4"/></g><g><path d="m35.6524925 24.9003448-.0007438.2626038-5.9606743-3.4413967.0007457-.2626038z" fill="#efac41"/></g><g><path d="m37.7328033 26.1014137-.0007438.2626019-1.5965195-.921751.0007439-.2626038z" fill="#ed435c"/></g><g><path d="m36.4843636 23.2301083-.0007439.2626037-7.0467033-4.0684166.0007438-.2626018z" fill="#e4e8f4"/></g><g><path d="m37.1219978 22.8820686-.0007438.2626038-3.5233536-2.0342083.0007477-.2626038z" fill="#e4e8f4"/></g><g><path d="m38.7411461 25.2512226-.0007439.2626019-5.6303558-3.2506867.0007439-.2626037z" fill="#e4e8f4"/></g><g><path d="m40.0420265 26.7184639-.0007477.2626019-5.1849289-2.9935208.0007439-.2626037z" fill="#e4e8f4"/></g><g><path d="m40.0440521 26.0034542-.0007438.2626038-1.0076218-.5817509.0007439-.2626019z" fill="#e4e8f4"/></g><g><path d="m40.0460854 25.2864704-.0007439.2626019-3.3031387-1.9070683.0007438-.2626018z" fill="#e4e8f4"/></g></g><g><path d="m31.4769859 18.9067402-.0007438.2626037-4.5309792-2.6159629.0007458-.2626019z" fill="#e4e8f4"/></g></g><g><g enable-background="new"><g><path d="m9.9674501 17.6724548-.0105753 4.5005264c-.0035248.1726398-.063386.2923203-.1584759.3487206l-.9930935.5775909c.0950899-.0564022.1584759-.1760807.1584759-.3487225l.0105753-4.5005245c.0035248-.3451099-.2429905-.7677708-.5423393-.940239l-3.9160147-2.2610092c-.1514258-.0880404-.2887735-.0950909-.390892-.0386896l.993093-.57759c.1021185-.0562286.2394662-.0491791.390892.0388613l3.9160142 2.2608385c.2993489.1760789.5458432.5951291.5423403.9402371z" fill="#f9bb4a"/></g><g><path d="m8.4309292 17.3096638c.3012857.1739464.545578.5943832.5445957.9406013l-.0127592 4.5007057c-.0009813.3462181-.2468548.4836578-.5481415.3097095l-3.9144993-2.2600365c-.3012867-.1739483-.5455706-.5943794-.544589-.9405994l.0127594-4.5007048c.0009816-.3462191.2468469-.4836626.5481336-.3097143z" fill="#efac41"/></g><g><g><path d="m5.3220167 17.7749443-.0035477 1.2514591-.2536463-.1464424.0014577-.5142021-.4953623-.2859974-.0014577.5142021-.2506714-.1447258.0035477-1.2514591.2506714.1447258-.0013996.4937382.4953623.2859974.0014-.4937382z" fill="#fff"/></g><g><path d="m6.4052672 18.4003601-.0006699.2364502-.3491469-.20158-.0028777 1.0150089-.2506714-.1447258.0028778-1.015007-.3491469-.2015801.0006704-.2364521z" fill="#fff"/></g><g><path d="m7.7660241 19.1859932-.0005627 1.2531815-.2357463-.1361084-.0008564-.7525597-.3210559.4362659-.1134005-.0654716-.3175859-.7878437-.00208.7337227-.2357564-.1361141.0035482-1.2514592.2059059.1188813.4066205 1.0144062.4050636-.5457802z" fill="#fff"/></g><g><path d="m8.2792969 19.4823322-.0028773 1.015007.5460978.3152905-.0006704.2364502-.7967596-.4600086.0035486-1.2514591z" fill="#fff"/></g></g></g></g><g><g enable-background="new"><g><path d="m12.9734268 4.6333838-.0105753 4.5005255c-.0035248.1726408-.063386.2923203-.1584759.3487206l-.9930935.57759c.0950899-.0564003.1584768-.1760798.1584768-.3487206l.0105743-4.5005255c.0035257-.3451095-.2429905-.7677703-.5423393-.940239l-3.9160141-2.2610097c-.1514263-.08804-.2887735-.09509-.390892-.0386895l.993093-.5775901c.1021185-.0562285.2394657-.0491785.390892.0388614l3.9160137 2.260838c.2993489.1760796.5458441.5951289.5423403.9402389z" fill="#75ca75"/></g><g><path d="m11.4369059 4.2705908c.3012867.1739478.545578.5943837.5445967.9406028l-.0127602 4.5007052c-.0009813.3462191-.2468548.4836578-.5481405.3097105l-3.9145003-2.2600379c-.3012867-.1739478-.5455704-.5943794-.544589-.940598l.0127597-4.5007057c.0009818-.3462187.2468471-.4836623.5481333-.3097143z" fill="#65aa65"/></g><g><g><path d="m8.2479172 4.5877943c.1278448.0738115.2396393.1613083.3433761.2718444.0997419.1079803.1874275.2322016.2550669.3678002l-.2163906.1050844c-.0995197-.1861877-.2191896-.3196444-.3670177-.4049925-.0878944-.050746-.1718569-.0762701-.2399006-.074142-.0720387.0043125-.1281572.0362773-.1683426.0959024-.040185.0596256-.0604272.1397462-.0607138.2408681-.0002995.1056051.019423.2087994.0591393.3145561.0397162.1057563.0954709.202311.1672621.2851734.0677957.0850454.1516294.1563984.2395238.2071443.1478271.0853481.2678623.0902853.3681231.0149503l.2150888.35395c-.0681848.0571809-.1562881.0799103-.2563286.0775356-.104023-.0096636-.219944-.0536385-.3477888-.12745-.1478281-.0853486-.2795658-.1980805-.4032063-.34306-.1196575-.1426801-.2112489-.3013386-.2827935-.4713745-.0675488-.1722202-.0990901-.3376217-.0986085-.5074868.0004687-.1653819.0328431-.2938814.1011462-.3876676.0722866-.0917354.1644635-.139555.2845378-.1438255.1240573-.0019713.2560029.0375342.4078269.1251897z" fill="#fff"/></g><g><path d="m9.590313 5.3628273c.0958872.0553608.1877527.1173801.275569.1957731.0878162.0783925.167614.1611366.2314138.243875l-.1047135.2339263c-.1355915-.1656003-.2673035-.2875481-.403141-.3659744-.0958881-.0553603-.1638517-.0763874-.2118998-.0672054-.0440512.01124-.0641642.0457811-.0643196.1008253-.0001688.0595274.0236921.114717.0755405.1723437.0518627.057385.1316853.1311631.2394838.2210922.1117822.0967198.1995994.1748634.2714168.2485099.0718441.069171.1316204.1543264.1833782.2485738.047761.0919404.0754633.1997414.0751505.3100791-.0002737.0963893-.0244856.1697273-.0726509.2200055-.0441685.052835-.1162596.0755782-.2082806.0683537s-.2079554-.0512075-.339797-.1273265c-.1158562-.0668893-.2276774-.1496615-.3354635-.2440739-.1077585-.0991373-.1915264-.1934042-.2592831-.292398l.1167021-.2267551c.0637598.0919461.1355648.1748161.2233686.2576919.083807.0805683.171649.1497455.2555475.198184.0958872.0553608.1678477.0784459.2158833.0739965.0440378-.0067573.0681467-.038991.0683031-.0940351l-.0396776-.1194554c-.0278969-.043549-.0637856-.0874705-.1036978-.1242351-.0438948-.0438037-.0997925-.0897975-.1716366-.1542287-.1117944-.0922365-.2035942-.1774197-.2754259-.2463336-.0678348-.0713472-.131607-.1588101-.179369-.2507501-.0517444-.0989799-.0754756-.1999979-.0751504-.3148188.0002737-.0963898.020503-.1720271.0686674-.2223053.0441818-.0573182.1162605-.0755782.2082806-.0683537.0920209.0072246.2039594.0489002.3358011.1250191z" fill="#fff"/></g><g><path d="m10.9207335 6.1309457c.0958872.0553608.1837559.1150732.275569.1957731.0878162.0783925.1636171.1588297.2313995.2438674l-.1047001.2339339c-.1355906-.1656003-.2712994-.289855-.403141-.3659739-.0958872-.0553608-.1638641-.0763955-.2119122-.0672135-.0440512.01124-.0681477.0434813-.0683031.098526-.0001688.0595273.0276756.1170163.0795374.1746506.0518618.057385.1316853.1311631.2394838.2210922.1117687.0967121.199585.1748557.2714167.2485099.0718298.0691633.1316195.1543264.1833773.2485743.0477619.0919399.0754633.1997409.0751505.3100786-.0002728.0963898-.0244856.1697278-.07265.220006-.0441685.0528345-.1162729.0755701-.2082939.0683455s-.207942-.0511999-.3397837-.1273184c-.1158695-.0668974-.2276773-.1496615-.3354635-.2440743-.1077719-.0991449-.1955366-.1957192-.2592831-.292398l.1166887-.2267628c.0597773.0896468.1355648.1748161.2233686.2576919.083806.0805683.1716623.1497531.2555599.1981916.0958881.0553608.1678486.0784464.2158833.0739965.0440388-.0067568.0681343-.0389986.0682907-.0940428l-.0396776-.1194553c-.0278845-.043541-.0637732-.0874629-.1036844-.124227-.0438957-.0438042-.0997934-.089798-.1756334-.1565361-.1077986-.0899296-.1995983-.1751127-.2714424-.2440343-.0718174-.0736465-.1316071-.1588101-.1833515-.2530499-.0477486-.0966721-.0754766-.1999979-.0751505-.3148189.0002728-.0963893.0244989-.1697197.0726633-.2199979.0441818-.0573182.1122637-.0778852.2082806-.0683537.0920209.0072248.2039594.0489003.3358011.1250193z" fill="#fff"/></g></g></g></g><g><g enable-background="new"><g><path d="m17.7343426 15.6785975-.0105743 4.5005255c-.0035267.1726398-.0633869.2923203-.1584778.3487206l-.9930916.577589c.095089-.0564003.1584759-.1760788.1584759-.3487206l.0105743-4.5005245c.0035248-.3451099-.2429905-.7677708-.5423393-.940239l-3.9160147-2.2610102c-.1514254-.0880394-.2887735-.0950899-.390892-.0386896l.9930935-.57759c.1021185-.0562286.2394657-.0491781.390892.0388613l3.9160147 2.2608385c.2993488.1760797.5458431.595129.5423393.940239z" fill="#ebc5b2"/></g><g><path d="m16.1978207 15.3158045c.3012867.1739473.545578.5943832.5445976.9406023l-.0127602 4.5007057c-.0009804.3462181-.2468548.4836578-.5481415.3097095l-3.9144993-2.2600365c-.3012867-.1739483-.5455704-.5943794-.544589-.9405994l.0127602-4.5007048c.0009813-.3462191.2468462-.4836626.5481329-.3097143z" fill="#ddaf9b"/></g><g><g><path d="m13.4516897 15.9463663-.0012331.4348745-1.0143843-.1566143 1.0119753 1.0063973-.0012321.4348755-1.4422445-1.4693337.0012703-.4483061z" fill="#fff"/></g><g><path d="m14.9622135 15.9607487-1.0108337 2.7069244-.4192276-.2420406 1.0108347-2.7069245z" fill="#fff"/></g><g><path d="m15.018012 16.8506832 1.4422637 1.4693451-.0012703.4483051-1.4458685-.1981182.0012331-.4348736 1.0085392.1601468-1.0061303-1.0099316z" fill="#fff"/></g></g></g></g><g><g enable-background="new"><g><path d="m48.4114304 26.1329422-.0105743 4.5005245c-.0035248.1726418-.063385.2923203-.158474.3487206l-.9930954.5775909c.0950928-.0564003.1584778-.1760807.1584778-.3487206l.0105743-4.5005264c.0035248-.345108-.2429924-.7677689-.5423393-.940239l-3.9160156-2.2610092c-.1514244-.0880394-.2887726-.095089-.390892-.0386887l.9930954-.5775909c.1021156-.0562286.2394638-.0491791.390892.0388622l3.9160118 2.2608376c.2993507.1760788.545845.5951291.5423393.940239z" fill="#f25574"/></g><g><path d="m46.8749123 25.7701492c.3012848.1739483.545578.5943832.5445938.9406033l-.0127602 4.5007038c-.0009804.34622-.2468529.4836597-.5481377.3097115l-3.9145012-2.2600384c-.3012886-.1739483-.5455704-.5943794-.54459-.9405975l.0127602-4.5007057c.0009804-.3462181.2468452-.4836617.5481339-.3097153z" fill="#ed435c"/></g><g><g><path d="m43.9024239 26.6112938c.0447464.1053085.0652275.2086964.0649223.3160706-.0003052.1073647-.0213165.1906872-.0665092.2442818-.0451851.0533905-.1075935.0771751-.1907082.0689163-.0831375-.004158-.180027-.0402298-.290699-.1041241l-.2559128-.1477509-.0011368.4014473-.2905159-.1677284.0041122-1.4505672.5464287.3154812c.1106682.0638943.2074471.1396389.2903366.2313347.0828782.09169.1449509.1871242.1896821.2926387zm-.2987404.2931271c.0450859-.017601.0694733-.0633392.0697098-.1467705.0002251-.0795574-.0238152-.1569347-.0686493-.2266502-.0448265-.0697212-.1139488-.1294975-.2004089-.1794147l-.2386208-.1377678-.0014305.5047264.2386208.1377678c.08646.049919.1557044.0659255.2007789.048109" fill="#fff"/></g><g><path d="m45.3349075 27.1914997-.0041122 1.4505692-.2905007-.1677189.00169-.5961399-.5741005-.3314591-.0016899.5961399-.2939606-.1697178.0041122-1.4505691.2939606.1697159-.0016251.5722084.5741043.331459.0016213-.5722084z" fill="#fff"/></g><g><path d="m46.6622467 28.2046757c.0447235.105299.0652161.2086926.0649109.3160667-.0003052.1073627-.0213242.1906815-.0665016.2442856-.0451927.0533848-.1076126.0771637-.1907272.0689049-.0831184-.0041466-.1800194-.0402222-.2906876-.1041183l-.2559242-.1477566-.0011368.4014492-.2905045-.1677246.0041122-1.4505672.5464287.3154812c.1106682.0638943.2074547.1396446.2903252.231329.0828781.0916899.1449585.1871298.1897049.2926501zm-.2987518.2931213c.0450821-.017601.0694618-.063345.0696983-.1467762.0002251-.0795555-.0238037-.156929-.0686417-.2266445-.0448341-.069725-.1104889-.1275005-.2004051-.1794147l-.2386322-.1377735-.0014305.5047283.2386322.1377735c.0899162.0519142.1556969.0659198.200779.0481071" fill="#fff"/></g></g></g></g><g><g enable-background="new"><g><path d="m43.0855141 10.505969-.0105743 4.5005255c-.0035286.1726408-.0633888.2923193-.1584778.3487206l-.9930916.57759c.095089-.0564013.158474-.1760798.158474-.3487206l.0105743-4.5005255c.0035248-.3451099-.2429886-.7677708-.5423393-.940239l-3.9160118-2.2610102c-.1514283-.0880398-.2887765-.0950898-.3908921-.038689l.9930916-.57759c.1021194-.0562286.2394676-.0491786.390892.0388613l3.9160156 2.260838c.299347.1760797.5458413.595129.5423394.9402389z" fill="#576cfb"/></g><g><path d="m41.5489922 10.1431761c.3012848.1739473.545578.5943832.5445976.9406023l-.0127602 4.5007057c-.0009804.3462191-.2468567.4836578-.5481415.3097095l-3.9145012-2.2600374c-.3012848-.1739473-.5455704-.5943794-.5445862-.9405975l.0127563-4.5007057c.0009842-.3462191.2468491-.4836626.5481339-.3097148z" fill="#4562ef"/></g><g><g><path d="m39.2352676 9.638195-.0015221.537118-.0730095-.0421534c-.0876198-.0505867-.1607056-.0677052-.2046661-.0342731-.0512695.0205536-.0733948.0921259-.0736771.1927223l-.0019989.7046251c-.0004272.1511211-.0226479.247715-.0593567.2935429-.044014.0502739-.1098633.0628633-.1975784.0455046.0875244.0842705.1530914.1727324.1966743.2731247.0363045.0966444.0579033.2185383.057476.3696594l-.0019722.6964321c-.000309.1087894.0213623.1969862.0723228.2852221.0436516.0758114.1165695.1511936.2041893.2017803l.0730133.0421534-.001503.528924-.2263374-.1306772c-.2336426-.1348934-.4159927-.3076515-.5324211-.5093699-.1237564-.2059507-.1816139-.4326687-.1809006-.6843853l.0022354-.7883787-.0433731-.1846151-.1239662-.1221819-.1241379-.0716705.0015221-.537118.1241379.0716705.1242523.0215864.0442505-.1258202.0022621-.7970276c.0007133-.2517166.0596657-.4109955.1841812-.4736042.1171913-.0668392.2999229-.0283604.5335655.1065331z" fill="#fff"/></g><g><path d="m40.1625595 10.1735678c.2409477.1391106.4159966.3071966.539753.5131464.1237335.2059355.1816139.4326677.1809006.6843853l-.0022583.7970276.0433655.1764069.1239967.1217413.1241112.0716562-.0015221.537118-.1241112-.0716572-.1242828-.0211449-.0442467.1340284-.0022354.7883787c-.0007133.2517166-.0596886.4109802-.184185.4736032-.1245155.0626087-.2999458.0288019-.5408936-.1103077l-.2190323-.126461.0014992-.528924.0730095.0421534c.0876198.0505877.1534233.0552959.2046928.0342875.0439606-.033432.073391-.0921259.0737-.2009153l.0019722-.6964312c.0004311-.1511211.0153465-.2519321.0593567-.302206.0440102-.049819.1025848-.0666103.1976013-.0454903-.0948257-.0880327-.1531143-.1722918-.1966972-.273139-.0436058-.0921984-.0579033-.2098761-.057476-.3609972l.0019989-.7046251c.0002861-.1005955-.0286903-.2016716-.0723457-.277029-.0509605-.0882359-.1165962-.1512079-.204216-.2017946l-.0730133-.0421534.0015221-.537117z" fill="#fff"/></g></g></g></g></g><path d="m11.9250488 9.9310274c.0278931-.059082.043457-.1328125.0437012-.2192383l.0060425-2.1235352-.0050049 2.1230469c0 .0874024-.0164795.1606446-.0447388.2197266z" fill="#e4e8f4"/></g></g></svg>